# xmcd
#
# Track frame offsets:
#	150
#	19110
#	36762
#
# Disc length: 735 seconds
#
# Revision: 0
# Processed by: cddbd v1.4PL0 Copyright (c) Steve Scherf et al.
# Submitted via: audiograbber 1.81.03
#
DISCID=1a02dd03
DTITLE=Dee Fredrix - and so i will wait for you (single)
DYEAR=1993
DGENRE=
TTITLE0=and so i will wait for you
TTITLE1=love your brother
TTITLE2=and so i will wait for you Sumitomo Mix
EXTD=
EXTT0=
EXTT1=
EXTT2=
PLAYORDER=
